<mxfile host="app.diagrams.net" modified="2021-09-08T12:32:13.445Z" agent="5.0 (Windows NT 10.0; Win64; x64) AppleWebKit/537.36 (KHTML, like Gecko) Chrome/92.0.4515.159 Safari/537.36" etag="pWFO0n-uaEAyTOGkdyYk" version="15.0.6" type="github">
  <diagram id="WOc8-0ZmtCyFVTAdaP82" name="Page-1">
    <mxGraphModel dx="1038" dy="491" grid="1" gridSize="10" guides="1" tooltips="1" connect="1" arrows="1" fold="1" page="1" pageScale="1" pageWidth="827" pageHeight="1169" math="0" shadow="0">
      <root>
        <mxCell id="0" />
        <mxCell id="1" parent="0" />
        <mxCell id="oB6KeCiJw_ydNk8i-R4C-1" value="" style="ellipse;shape=cloud;whiteSpace=wrap;html=1;strokeWidth=2;fillColor=#eeeeee;strokeColor=#36393d;" parent="1" vertex="1">
          <mxGeometry x="10" y="70" width="120" height="80" as="geometry" />
        </mxCell>
        <mxCell id="oB6KeCiJw_ydNk8i-R4C-2" value="" style="endArrow=none;dashed=1;html=1;strokeWidth=2;" parent="1" edge="1">
          <mxGeometry width="50" height="50" relative="1" as="geometry">
            <mxPoint x="240" y="340" as="sourcePoint" />
            <mxPoint x="240" y="10" as="targetPoint" />
          </mxGeometry>
        </mxCell>
        <mxCell id="oB6KeCiJw_ydNk8i-R4C-3" style="edgeStyle=orthogonalEdgeStyle;rounded=0;orthogonalLoop=1;jettySize=auto;html=1;exitX=0;exitY=0.5;exitDx=0;exitDy=0;entryX=0.875;entryY=0.5;entryDx=0;entryDy=0;entryPerimeter=0;strokeWidth=2;fillColor=#008a00;strokeColor=#005700;" parent="1" source="oB6KeCiJw_ydNk8i-R4C-4" target="oB6KeCiJw_ydNk8i-R4C-1" edge="1">
          <mxGeometry relative="1" as="geometry" />
        </mxCell>
        <mxCell id="oB6KeCiJw_ydNk8i-R4C-19" style="edgeStyle=orthogonalEdgeStyle;rounded=0;orthogonalLoop=1;jettySize=auto;html=1;exitX=0.5;exitY=1;exitDx=0;exitDy=0;entryX=0;entryY=0.5;entryDx=0;entryDy=0;strokeWidth=2;fillColor=#e51400;strokeColor=#B20000;" parent="1" source="oB6KeCiJw_ydNk8i-R4C-4" target="oB6KeCiJw_ydNk8i-R4C-18" edge="1">
          <mxGeometry relative="1" as="geometry" />
        </mxCell>
        <mxCell id="oB6KeCiJw_ydNk8i-R4C-4" value="&lt;b&gt;eth0&lt;br&gt;10.103.64.10&lt;/b&gt;" style="rounded=0;whiteSpace=wrap;html=1;strokeWidth=2;fillColor=#cdeb8b;strokeColor=#36393d;" parent="1" vertex="1">
          <mxGeometry x="190" y="85" width="100" height="50" as="geometry" />
        </mxCell>
        <mxCell id="oB6KeCiJw_ydNk8i-R4C-5" style="edgeStyle=orthogonalEdgeStyle;rounded=0;orthogonalLoop=1;jettySize=auto;html=1;exitX=0;exitY=0.5;exitDx=0;exitDy=0;entryX=1;entryY=0.5;entryDx=0;entryDy=0;strokeWidth=2;fillColor=#008a00;strokeColor=#005700;" parent="1" source="oB6KeCiJw_ydNk8i-R4C-6" target="oB6KeCiJw_ydNk8i-R4C-4" edge="1">
          <mxGeometry relative="1" as="geometry" />
        </mxCell>
        <mxCell id="oB6KeCiJw_ydNk8i-R4C-6" value="&lt;b&gt;NAT&lt;/b&gt;" style="rounded=0;whiteSpace=wrap;html=1;strokeWidth=2;fillColor=#ffcc99;strokeColor=#36393d;" parent="1" vertex="1">
          <mxGeometry x="350" y="85" width="100" height="50" as="geometry" />
        </mxCell>
        <mxCell id="oB6KeCiJw_ydNk8i-R4C-7" value="" style="endArrow=none;dashed=1;html=1;strokeWidth=2;" parent="1" edge="1">
          <mxGeometry width="50" height="50" relative="1" as="geometry">
            <mxPoint x="560" y="340" as="sourcePoint" />
            <mxPoint x="560" y="10" as="targetPoint" />
          </mxGeometry>
        </mxCell>
        <mxCell id="oB6KeCiJw_ydNk8i-R4C-8" style="edgeStyle=orthogonalEdgeStyle;rounded=0;orthogonalLoop=1;jettySize=auto;html=1;exitX=0.5;exitY=0;exitDx=0;exitDy=0;entryX=1;entryY=0.5;entryDx=0;entryDy=0;strokeWidth=2;fillColor=#008a00;strokeColor=#005700;" parent="1" source="oB6KeCiJw_ydNk8i-R4C-9" target="oB6KeCiJw_ydNk8i-R4C-6" edge="1">
          <mxGeometry relative="1" as="geometry" />
        </mxCell>
        <mxCell id="oB6KeCiJw_ydNk8i-R4C-23" style="rounded=0;orthogonalLoop=1;jettySize=auto;html=1;exitX=1;exitY=0;exitDx=0;exitDy=0;entryX=0;entryY=0.5;entryDx=0;entryDy=0;strokeWidth=2;fillColor=#e51400;strokeColor=#B20000;" parent="1" source="oB6KeCiJw_ydNk8i-R4C-9" target="oB6KeCiJw_ydNk8i-R4C-21" edge="1">
          <mxGeometry relative="1" as="geometry" />
        </mxCell>
        <mxCell id="oB6KeCiJw_ydNk8i-R4C-9" value="&lt;b&gt;docker0&lt;br&gt;172.17.0.1&lt;/b&gt;" style="rounded=0;whiteSpace=wrap;html=1;strokeWidth=2;fillColor=#ffff88;strokeColor=#36393d;" parent="1" vertex="1">
          <mxGeometry x="510" y="170" width="100" height="50" as="geometry" />
        </mxCell>
        <mxCell id="oB6KeCiJw_ydNk8i-R4C-10" style="rounded=0;orthogonalLoop=1;jettySize=auto;html=1;exitX=0;exitY=0.5;exitDx=0;exitDy=0;entryX=1;entryY=1;entryDx=0;entryDy=0;strokeWidth=2;fillColor=#008a00;strokeColor=#005700;" parent="1" source="oB6KeCiJw_ydNk8i-R4C-11" target="oB6KeCiJw_ydNk8i-R4C-9" edge="1">
          <mxGeometry relative="1" as="geometry" />
        </mxCell>
        <mxCell id="oB6KeCiJw_ydNk8i-R4C-11" value="&lt;b&gt;busybox&lt;br&gt;10.10.10.2&lt;/b&gt;" style="rounded=0;whiteSpace=wrap;html=1;strokeWidth=2;fillColor=#cce5ff;strokeColor=#36393d;" parent="1" vertex="1">
          <mxGeometry x="690" y="240" width="100" height="50" as="geometry" />
        </mxCell>
        <mxCell id="oB6KeCiJw_ydNk8i-R4C-12" value="&lt;b&gt;Outbound&lt;br&gt;Request&lt;br&gt;From Container&lt;/b&gt;" style="text;html=1;strokeColor=none;fillColor=none;align=center;verticalAlign=middle;whiteSpace=wrap;rounded=0;" parent="1" vertex="1">
          <mxGeometry x="580" y="280" width="100" height="20" as="geometry" />
        </mxCell>
        <mxCell id="oB6KeCiJw_ydNk8i-R4C-13" value="&lt;b&gt;&lt;font style=&quot;font-size: 14px&quot;&gt;Docker Host&lt;/font&gt;&lt;/b&gt;" style="text;html=1;strokeColor=none;fillColor=none;align=center;verticalAlign=middle;whiteSpace=wrap;rounded=0;" parent="1" vertex="1">
          <mxGeometry x="350" y="40" width="90" height="20" as="geometry" />
        </mxCell>
        <mxCell id="oB6KeCiJw_ydNk8i-R4C-14" value="&lt;b&gt;&lt;font style=&quot;font-size: 14px&quot;&gt;Container Network&lt;/font&gt;&lt;/b&gt;" style="text;html=1;strokeColor=none;fillColor=none;align=center;verticalAlign=middle;whiteSpace=wrap;rounded=0;" parent="1" vertex="1">
          <mxGeometry x="600" y="40" width="150" height="20" as="geometry" />
        </mxCell>
        <mxCell id="oB6KeCiJw_ydNk8i-R4C-15" value="&lt;b&gt;&lt;font style=&quot;font-size: 14px&quot;&gt;External Network&lt;/font&gt;&lt;/b&gt;" style="text;html=1;strokeColor=none;fillColor=none;align=center;verticalAlign=middle;whiteSpace=wrap;rounded=0;" parent="1" vertex="1">
          <mxGeometry x="30" y="40" width="130" height="20" as="geometry" />
        </mxCell>
        <mxCell id="oB6KeCiJw_ydNk8i-R4C-17" style="rounded=0;orthogonalLoop=1;jettySize=auto;html=1;entryX=0;entryY=1;entryDx=0;entryDy=0;strokeWidth=2;fillColor=#e51400;strokeColor=#B20000;" parent="1" target="oB6KeCiJw_ydNk8i-R4C-4" edge="1">
          <mxGeometry relative="1" as="geometry">
            <mxPoint x="100" y="210" as="sourcePoint" />
          </mxGeometry>
        </mxCell>
        <mxCell id="oB6KeCiJw_ydNk8i-R4C-16" value="&lt;b&gt;Inbound Request&lt;br&gt;To Exposed port &lt;br&gt;TCP 8080&lt;/b&gt;" style="text;html=1;strokeColor=none;fillColor=none;align=center;verticalAlign=middle;whiteSpace=wrap;rounded=0;" parent="1" vertex="1">
          <mxGeometry x="30" y="220" width="135" height="20" as="geometry" />
        </mxCell>
        <mxCell id="oB6KeCiJw_ydNk8i-R4C-20" style="edgeStyle=orthogonalEdgeStyle;rounded=0;orthogonalLoop=1;jettySize=auto;html=1;exitX=1;exitY=0.5;exitDx=0;exitDy=0;entryX=0.5;entryY=1;entryDx=0;entryDy=0;strokeWidth=2;fillColor=#e51400;strokeColor=#B20000;" parent="1" source="oB6KeCiJw_ydNk8i-R4C-18" target="oB6KeCiJw_ydNk8i-R4C-9" edge="1">
          <mxGeometry relative="1" as="geometry" />
        </mxCell>
        <mxCell id="oB6KeCiJw_ydNk8i-R4C-18" value="&lt;b&gt;docker-proxy&lt;/b&gt;" style="rounded=0;whiteSpace=wrap;html=1;strokeWidth=2;fillColor=#ffcccc;strokeColor=#36393d;" parent="1" vertex="1">
          <mxGeometry x="350" y="230" width="100" height="50" as="geometry" />
        </mxCell>
        <mxCell id="oB6KeCiJw_ydNk8i-R4C-21" value="&lt;b&gt;httpd&lt;br&gt;172.17.0.2&lt;/b&gt;" style="rounded=0;whiteSpace=wrap;html=1;strokeWidth=2;fillColor=#cce5ff;strokeColor=#36393d;" parent="1" vertex="1">
          <mxGeometry x="690" y="90" width="100" height="50" as="geometry" />
        </mxCell>
        <mxCell id="oB6KeCiJw_ydNk8i-R4C-24" value="&lt;b&gt;TCP 80&lt;/b&gt;" style="text;html=1;strokeColor=none;fillColor=none;align=center;verticalAlign=middle;whiteSpace=wrap;rounded=0;" parent="1" vertex="1">
          <mxGeometry x="600" y="120" width="50" height="20" as="geometry" />
        </mxCell>
      </root>
    </mxGraphModel>
  </diagram>
</mxfile>
